<?xml version="1.0" standalone="no"?>
<!DOCTYPE svg PUBLIC "-//W3C//DTD SVG 20010904//EN"
 "http://www.w3.org/TR/2001/REC-SVG-20010904/DTD/svg10.dtd">
<svg version="1.0" xmlns="http://www.w3.org/2000/svg"
 width="1280.000000pt" height="1280.000000pt" viewBox="0 0 1280.000000 1280.000000"
 preserveAspectRatio="xMidYMid meet">
<metadata>
Created by potrace 1.16, written by Peter Selinger 2001-2019
</metadata>
<g transform="translate(0.000000,1280.000000) scale(0.100000,-0.100000)"
fill="#000000" stroke="none">
<path d="M5935 12789 c-44 -4 -134 -13 -200 -19 -855 -84 -1742 -369 -2507
-806 -80 -46 -149 -84 -153 -84 -3 0 -3 6 1 13 4 7 3 9 -2 4 -5 -5 -9 -13 -9
-17 0 -11 -335 -233 -341 -227 -3 2 14 16 36 31 22 14 40 29 40 32 0 3 -21 -9
-46 -26 -25 -18 -43 -34 -40 -38 7 -7 -13 -32 -26 -32 -6 0 -4 8 3 18 11 15
11 15 -1 4 -8 -7 -15 -18 -15 -24 0 -6 -6 -13 -14 -16 -9 -3 -11 0 -6 9 5 8 4
11 -1 6 -5 -5 -9 -12 -9 -15 0 -13 -16 -32 -27 -32 -6 0 -5 7 3 18 13 15 12
16 -4 3 -9 -8 -15 -16 -12 -19 7 -7 -15 -32 -27 -32 -6 0 -4 8 3 18 13 15 12
16 -4 3 -9 -8 -15 -16 -12 -19 7 -7 -15 -32 -27 -32 -6 0 -4 8 3 18 13 15 12
16 -4 3 -9 -8 -15 -16 -12 -19 7 -7 -15 -32 -27 -32 -6 0 -4 8 3 18 13 15 12
16 -4 3 -9 -8 -15 -16 -12 -19 7 -7 -15 -32 -27 -32 -6 0 -4 8 3 18 11 14 10
13 -9 -2 -24 -21 -29 -31 -9 -20 6 4 3 -2 -7 -14 -23 -26 -44 -30 -25 -4 11
14 10 13 -9 -2 -24 -21 -29 -31 -9 -20 6 4 3 -2 -7 -14 -23 -26 -44 -30 -25
-4 11 14 9 13 -9 -2 -12 -11 -20 -21 -17 -24 7 -7 -25 -42 -38 -42 -6 0 -2 9
8 20 10 11 16 20 13 20 -2 0 -17 -14 -34 -32 -16 -18 -20 -26 -9 -18 11 8 7 0
-9 -18 -33 -36 -60 -44 -30 -9 l19 22 -22 -19 c-13 -10 -21 -22 -18 -26 6 -9
-53 -65 -60 -58 -4 3 6 15 21 27 15 11 22 21 17 21 -5 0 -25 -17 -44 -37 -18
-20 -25 -31 -14 -23 11 8 -2 -9 -30 -38 -53 -56 -88 -73 -39 -19 16 17 5 10
-24 -18 -54 -51 -72 -76 -24 -34 27 24 27 23 -2 -8 -16 -18 -34 -30 -39 -26
-6 3 -7 2 -4 -4 8 -13 -207 -226 -218 -216 -4 4 -5 3 -2 -3 3 -6 -8 -24 -26
-40 l-32 -29 25 30 c13 17 1 8 -28 -20 -28 -27 -52 -51 -52 -54 0 -3 14 8 30
24 17 16 30 24 30 19 0 -5 -24 -32 -52 -59 -29 -28 -42 -38 -29 -22 14 15 20
27 15 26 -5 0 -25 -19 -44 -42 -19 -23 -25 -33 -12 -23 12 11 22 15 22 9 0
-12 -55 -65 -62 -58 -2 3 -13 -5 -24 -17 l-19 -23 23 19 c34 30 26 3 -10 -30
-18 -16 -26 -21 -19 -11 22 28 7 19 -25 -15 -16 -18 -19 -24 -6 -14 12 11 22
15 22 9 0 -13 -35 -45 -42 -38 -3 3 -13 -5 -24 -17 -15 -18 -16 -20 -1 -9 25
19 21 -2 -5 -25 -13 -12 -18 -13 -13 -4 5 9 0 8 -13 -4 -25 -21 -31 -36 -7
-16 24 20 17 -5 -7 -26 -13 -12 -18 -13 -13 -4 5 9 0 8 -13 -4 -25 -21 -31
-36 -7 -16 8 7 15 8 15 2 0 -5 -7 -15 -15 -22 -8 -7 -15 -9 -15 -5 0 5 -9 0
-20 -10 -12 -10 -18 -25 -15 -32 6 -16 -73 -125 -85 -118 -5 3 -12 0 -16 -6
-5 -8 -3 -9 6 -4 8 5 11 3 8 -6 -3 -8 -11 -14 -18 -14 -8 0 -34 -28 -58 -62
-24 -35 -41 -63 -38 -63 2 0 24 27 47 60 23 33 43 59 45 57 2 -2 -53 -88 -121
-191 -447 -676 -766 -1445 -929 -2236 -56 -273 -80 -448 -116 -834 -13 -142
-13 -770 0 -912 21 -222 32 -321 46 -424 134 -954 471 -1848 1000 -2647 68
-103 122 -188 120 -190 -2 -2 -22 24 -45 57 -23 33 -45 60 -47 60 -3 0 14 -28
38 -62 24 -35 50 -63 58 -63 7 0 15 -6 18 -14 3 -9 0 -11 -8 -6 -9 5 -11 4 -6
-4 4 -6 11 -9 16 -6 8 5 120 -137 120 -152 0 -4 -14 8 -31 27 l-31 35 25 -35
c13 -19 28 -35 33 -35 15 0 34 -16 34 -27 0 -6 -7 -5 -18 3 -14 11 -13 10 2
-9 21 -24 31 -29 20 -10 -4 7 2 4 14 -6 26 -23 30 -44 5 -25 -15 11 -14 9 1
-9 11 -12 21 -20 24 -17 7 7 42 -25 42 -38 0 -6 -10 -2 -22 9 l-23 19 19 -23
c11 -12 21 -20 24 -17 7 7 42 -25 42 -38 0 -6 -10 -2 -22 9 -13 10 -10 4 6
-14 32 -34 47 -43 25 -15 -7 10 1 5 19 -11 36 -33 44 -60 10 -30 l-23 19 19
-22 c10 -12 23 -21 30 -20 6 1 9 -5 8 -13 -2 -8 0 -12 4 -7 8 8 44 -21 44 -36
0 -6 -10 -2 -22 9 -13 10 -7 1 12 -22 19 -22 37 -39 39 -37 2 1 -4 13 -15 25
-10 13 5 1 34 -27 56 -53 73 -88 19 -39 -17 16 -10 5 18 -24 51 -54 76 -72 34
-24 -24 27 -23 27 8 -2 18 -16 30 -34 26 -39 -3 -6 -2 -7 4 -4 13 8 226 -207
216 -218 -4 -4 -3 -5 3 -2 6 4 22 -6 35 -21 l24 -27 -25 20 c-14 11 -3 -4 25
-33 27 -29 51 -52 54 -52 3 0 -10 16 -29 35 -19 19 -29 35 -24 35 5 0 30 -20
54 -45 24 -25 40 -45 35 -45 -5 0 6 -16 25 -35 19 -19 38 -35 43 -35 5 0 -6
12 -23 26 -17 15 -28 29 -25 32 7 7 75 -59 70 -68 -3 -4 5 -16 18 -26 l22 -19
-19 23 c-30 34 -3 26 30 -10 16 -18 20 -26 9 -18 -11 8 -7 0 9 -18 17 -18 32
-32 34 -32 3 0 -3 9 -13 20 -10 11 -14 20 -8 20 13 0 45 -35 38 -42 -3 -3 5
-13 17 -24 18 -15 20 -16 9 -1 -19 25 2 21 25 -5 12 -13 13 -18 4 -13 -9 5 -8
0 4 -13 21 -25 36 -31 16 -7 -20 24 5 17 26 -7 12 -13 13 -18 4 -13 -9 5 -8 0
4 -13 21 -25 36 -31 16 -7 -7 8 -8 15 -2 15 12 0 34 -25 27 -32 -3 -3 3 -11
12 -19 16 -13 17 -12 4 4 -7 9 -9 17 -3 17 12 0 34 -25 27 -32 -3 -3 3 -11 12
-19 16 -13 17 -12 4 4 -7 9 -9 17 -3 17 12 0 34 -25 27 -32 -3 -3 3 -11 12
-19 16 -13 17 -12 4 4 -7 9 -9 17 -3 17 12 0 34 -25 27 -32 -3 -3 3 -11 12
-19 16 -13 17 -12 4 4 -8 10 -9 17 -3 17 11 0 27 -19 27 -32 0 -3 4 -10 9 -15
5 -5 6 -2 1 6 -5 9 -3 12 6 9 8 -3 14 -10 14 -16 0 -6 7 -17 15 -24 12 -11 12
-11 1 5 -7 9 -9 17 -3 17 13 0 33 -25 26 -32 -3 -4 15 -20 40 -38 25 -17 46
-29 46 -26 0 3 -18 18 -40 32 -22 15 -39 29 -36 31 6 6 341 -216 341 -227 0
-4 4 -12 9 -17 5 -5 6 -3 2 5 -4 6 -4 12 -1 12 4 0 73 -38 153 -84 685 -392
1457 -658 2229 -770 161 -24 243 -33 487 -56 142 -13 770 -13 912 0 500 47
742 87 1149 190 543 138 1125 377 1607 659 76 45 141 81 144 81 3 0 2 -6 -2
-12 -4 -8 -3 -10 2 -5 5 5 9 13 9 17 0 9 270 190 283 190 4 0 -6 -12 -23 -26
l-30 -26 32 22 c18 11 32 26 30 32 -1 6 4 13 12 16 9 3 11 0 6 -8 -6 -9 -4
-11 4 -6 7 5 10 11 7 14 -7 7 13 32 26 32 6 0 4 -8 -3 -17 -11 -16 -11 -16 1
-5 8 7 15 18 15 24 0 6 6 13 14 16 9 3 11 0 6 -8 -6 -9 -4 -11 4 -6 7 5 10 11
7 14 -7 7 13 32 26 32 6 0 4 -8 -3 -17 -13 -16 -12 -17 4 -4 9 8 15 16 12 19
-7 7 15 32 27 32 6 0 4 -8 -3 -17 -13 -16 -12 -17 4 -4 9 8 15 16 12 19 -7 7
15 32 27 32 6 0 4 -8 -3 -17 -13 -16 -12 -17 4 -4 9 8 15 16 12 19 -7 7 15 32
27 32 6 0 4 -8 -3 -17 -13 -16 -12 -17 4 -4 9 8 15 16 12 19 -7 7 15 32 27 32
6 0 4 -8 -3 -18 -11 -14 -10 -13 9 2 24 21 29 31 10 20 -7 -4 -4 2 6 14 23 26
44 30 25 4 -11 -14 -10 -13 9 2 24 21 29 31 10 20 -7 -4 -4 2 6 14 23 26 44
30 25 4 -11 -14 -9 -13 9 2 12 11 20 21 17 24 -7 7 25 42 38 42 6 0 2 -9 -8
-20 -10 -11 -16 -20 -13 -20 2 0 17 14 34 32 16 18 20 26 9 18 -11 -8 -7 0 9
18 33 36 60 45 30 10 -10 -13 10 2 45 33 35 30 63 59 62 63 -4 10 80 96 93 96
5 0 -6 -17 -24 -38 -20 -20 -12 -15 18 13 53 50 71 74 30 39 -21 -17 -21 -17
1 8 13 15 28 25 34 21 6 -3 7 -2 4 4 -8 13 187 206 198 196 4 -4 5 -3 2 3 -8
14 56 77 68 67 4 -5 5 -2 0 5 -8 14 72 105 85 97 4 -2 20 10 36 28 29 31 29
32 2 8 -42 -37 -33 -10 9 30 20 18 31 26 24 17 -22 -29 -7 -20 25 14 16 18 19
24 7 14 -13 -11 -23 -15 -23 -9 0 12 45 55 52 48 2 -3 15 7 29 22 22 25 22 26
2 9 -13 -11 -23 -15 -23 -9 0 13 35 45 42 38 3 -3 13 5 24 17 l19 23 -22 -19
c-13 -11 -23 -15 -23 -9 0 13 35 45 42 38 3 -3 13 5 24 17 15 18 16 20 2 9
-10 -7 -18 -9 -18 -3 0 12 25 34 32 27 3 -3 13 5 24 17 l19 23 -22 -19 c-13
-11 -23 -15 -23 -9 0 13 35 45 42 38 3 -3 18 11 34 32 15 21 20 32 11 24 -28
-22 -20 -4 24 54 23 30 45 53 49 50 5 -3 12 0 16 6 5 8 3 9 -6 4 -8 -5 -11 -3
-8 6 3 8 11 14 19 14 7 0 38 35 67 77 29 43 51 78 48 78 -3 0 -28 -34 -57 -75
-28 -42 -53 -74 -55 -72 -6 6 227 352 236 352 5 0 12 4 17 9 5 5 3 6 -4 2 -7
-4 -13 -5 -13 -2 0 3 36 68 81 144 282 481 521 1064 659 1607 103 407 143 649
190 1149 5 60 10 265 10 456 0 191 -5 396 -10 456 -47 500 -87 742 -190 1149
-138 543 -377 1126 -659 1607 -45 76 -81 141 -81 144 0 3 6 2 13 -2 7 -4 9 -3
4 2 -5 5 -12 9 -17 9 -9 0 -242 346 -236 352 2 2 27 -30 55 -72 29 -41 54 -75
57 -75 3 0 -19 35 -48 78 -29 42 -60 77 -67 77 -8 0 -16 6 -19 14 -3 9 0 11 8
6 9 -5 11 -4 6 4 -4 6 -11 9 -16 6 -4 -3 -26 20 -49 50 -44 58 -52 76 -24 54
9 -8 4 3 -11 24 -16 21 -31 35 -34 32 -7 -7 -42 25 -42 38 0 6 10 2 23 -9 l22
-19 -19 23 c-11 12 -21 20 -24 17 -7 -7 -42 25 -42 38 0 6 10 2 22 -9 12 -10
5 2 -16 29 -22 26 -41 45 -44 42 -7 -7 -42 25 -42 38 0 6 10 2 23 -9 20 -17
20 -16 -2 9 -14 15 -27 25 -29 22 -7 -7 -52 36 -52 48 0 6 9 2 20 -8 11 -10
20 -16 20 -13 0 2 -14 17 -32 34 -18 16 -26 20 -18 9 8 -11 -3 -4 -23 14 -42
40 -51 67 -9 30 18 -16 16 -12 -7 13 -19 21 -37 35 -41 33 -13 -8 -83 73 -75
86 5 7 4 10 -2 6 -13 -8 -76 57 -66 68 5 4 3 5 -3 2 -10 -6 -199 175 -199 191
0 4 -3 6 -7 5 -3 -1 -12 5 -20 14 -11 14 -11 16 2 8 9 -5 12 -5 7 1 -5 5 -14
9 -20 9 -7 1 -11 6 -10 11 1 6 -15 26 -35 45 l-37 34 34 -37 c19 -21 30 -38
25 -38 -13 0 -96 85 -89 91 2 3 -10 19 -28 35 -31 28 -31 28 -8 2 37 -42 10
-33 -30 9 -18 20 -25 31 -14 23 11 -8 7 0 -9 18 -17 18 -32 32 -34 32 -3 0 3
-9 13 -20 10 -11 14 -20 8 -20 -5 0 -22 14 -39 32 -16 18 -20 26 -9 18 11 -8
7 0 -9 18 -17 18 -32 32 -34 32 -3 0 3 -9 13 -20 10 -11 14 -20 8 -20 -13 0
-45 35 -38 42 3 3 -5 13 -17 24 l-23 19 19 -22 c11 -13 15 -23 9 -23 -13 0
-45 35 -38 42 3 3 -5 13 -17 24 -18 15 -20 16 -9 2 7 -10 9 -18 3 -18 -12 0
-34 25 -27 32 3 3 -5 13 -17 24 l-23 19 19 -22 c11 -13 15 -23 9 -23 -13 0
-45 35 -38 42 3 3 -3 11 -12 19 -16 13 -17 12 -4 -3 7 -10 9 -18 3 -18 -12 0
-34 25 -27 32 3 3 -3 11 -12 19 -16 13 -17 12 -4 -3 7 -10 9 -18 3 -18 -12 0
-34 25 -27 32 3 3 -3 11 -12 19 -16 13 -17 12 -4 -3 7 -10 9 -18 3 -18 -12 0
-34 25 -27 32 3 3 -3 11 -12 19 -16 13 -17 12 -4 -3 7 -10 9 -18 3 -18 -11 0
-38 30 -35 39 1 3 -1 8 -4 11 -4 3 -3 -1 2 -9 5 -9 3 -12 -6 -9 -8 3 -13 10
-12 16 1 5 -5 16 -15 24 -15 12 -16 11 -3 -4 18 -24 6 -23 -30 3 -16 11 -27
24 -24 29 3 5 -15 23 -40 40 -25 17 -45 29 -45 26 0 -3 18 -18 40 -32 22 -15
39 -29 36 -31 -6 -6 -281 177 -281 187 0 4 -4 12 -9 17 -5 5 -6 3 -2 -4 4 -7
5 -13 2 -13 -3 0 -68 36 -144 81 -481 282 -1064 521 -1607 659 -407 103 -649
143 -1149 190 -126 12 -802 11 -921 -1z m-296 -2504 c803 -90 1518 -509 1987
-1166 38 -53 86 -124 106 -157 l38 -61 47 20 c249 107 607 134 903 69 467
-102 857 -412 1065 -845 41 -86 97 -249 115 -331 l12 -61 120 -31 c526 -137
1015 -498 1341 -992 138 -209 254 -482 309 -726 20 -90 22 -126 23 -399 0
-274 -2 -309 -22 -398 -79 -347 -252 -654 -520 -923 -383 -386 -902 -629
-1478 -694 -59 -6 -1174 -10 -3200 -10 -2713 0 -3127 2 -3239 15 -708 83
-1364 477 -1719 1032 -215 336 -300 695 -269 1131 20 275 84 507 217 777 228
466 592 848 996 1046 l67 32 6 91 c50 667 338 1296 811 1771 457 458 1077 753
1710 814 148 14 430 12 574 -4z"/>
<path d="M5195 9579 c-832 -57 -1550 -610 -1825 -1406 -89 -256 -114 -431
-114 -802 l-1 -284 -185 -54 c-226 -66 -297 -97 -424 -180 -291 -193 -547
-564 -642 -929 -27 -103 -29 -120 -29 -319 0 -252 8 -293 95 -470 89 -179 191
-307 354 -443 271 -225 592 -357 952 -392 149 -14 6071 -14 6215 0 518 51 988
322 1244 718 114 177 155 314 163 537 9 286 -47 494 -201 740 -224 360 -594
642 -965 736 -81 21 -176 34 -342 49 -127 11 -237 20 -245 20 -12 0 -15 18
-15 98 -1 176 -18 407 -35 477 -57 237 -232 450 -455 554 -115 53 -185 71
-315 78 -130 7 -234 -10 -349 -56 -89 -36 -122 -56 -399 -248 -115 -80 -210
-143 -211 -141 -2 2 -45 98 -96 213 -182 411 -254 542 -401 725 -80 100 -227
249 -319 323 -268 215 -620 374 -956 432 -75 12 -366 38 -384 33 -3 0 -54 -4
-115 -9z"/>
</g>
</svg>
